# xmcd CD database file
#
# Track frame offsets:
#	150
#	27579
#	57909
#	94781
#	124358
#	155864
#	182167
#	210180
#
# Disc length: 2954 seconds
#
# Revision: 0
# Processed by: cddbd v1.4PL0 Copyright (c) Steve Scherf et al.
# Submitted via: CDex 1.50
#
DISCID=6f0b8808
DTITLE=Jeanne French - Live in Concert - Mean Man Blues
DYEAR=2002
DGENRE=Blues
TTITLE0=Mean Man Blues
TTITLE1=Walkin the Dog
TTITLE2=Baby what You Want Me to do
TTITLE3=Wild Women don't Sing the Blues
TTITLE4=Sixteens Tons 
TTITLE5=Jam
TTITLE6=Wild Horses
TTITLE7=Baby Please don'g Go
EXTD=YEAR: 2002
EXTT0=
EXTT1=
EXTT2=
EXTT3=
EXTT4=
EXTT5=
EXTT6=
EXTT7=
PLAYORDER=
